# xmcd CD database file
#
# Track frame offsets:
#	182
#	20710
#	33820
#	50907
#	71215
#	93137
#	119425
#	138720
#	152400
#	170655
#	192220
#	212330
#	218495
#
# Disc length: 3121 seconds
#
# Revision: 2
# Processed by: cddbd v1.5.2PL0 Copyright (c) Steve Scherf et al.
# Submitted via: CDex 1.51
#
DISCID=b70c2f0d
DTITLE=Danilo Cahymmi - Danilo Caymmi
DYEAR=1992
DGENRE=Pop Brasil
TTITLE0=Ate o fim-Danilo Caymmi
TTITLE1=Certas loucuras-Danilo Caymmi
TTITLE2=Nada a perder-Danilo Caymmi
TTITLE3=Pra se divertir-Danilo Caymmi
TTITLE4=A mulher e o mar-Danilo Caymmi
TTITLE5=Diga viver-Danilo Caymmi
TTITLE6=Ziguezagueou-Danilo Caymmi
TTITLE7=Nunca mais-Danilo Caymmi
TTITLE8=Por toda eternidade-Danilo Caymmi
TTITLE9=Preciso te esquecer-Danilo Caymmi
TTITLE10=Esquecendo voce-Danilo Caymmi 
TTITLE11=Vontade de ninguem-Danilo Caymmi
TTITLE12=Questao de hora-Danilo Caymmi
EXTD=YEAR: 1992
EXTT0=
EXTT1=
EXTT2=
EXTT3=
EXTT4=
EXTT5=
EXTT6=
EXTT7=
EXTT8=
EXTT9=
EXTT10=
EXTT11=
EXTT12=
PLAYORDER=
